<svg width="16" height="16" viewBox="0 0 16 16" fill="none" xmlns="http://www.w3.org/2000/svg">
<path d="M12.198 4.724H11.034V3.614C11.0346 3.2959 10.9411 2.98472 10.7654 2.71956C10.5897 2.45439 10.3396 2.24706 10.0464 2.1236C9.85179 2.0422 9.64297 2.00019 9.43201 2H4.60201C4.39085 2.00079 4.1819 2.04316 3.98711 2.12469C3.79232 2.20623 3.6155 2.32534 3.46674 2.47521C3.31798 2.62509 3.20019 2.80279 3.12011 2.99819C3.04003 3.19358 2.99922 3.40283 3.00001 3.614V9.668C2.99922 9.87917 3.04003 10.0884 3.12011 10.2838C3.20019 10.4792 3.31798 10.6569 3.46674 10.8068C3.6155 10.9567 3.79232 11.0758 3.98711 11.1573C4.1819 11.2388 4.39085 11.2812 4.60201 11.282H5.76601V12.392C5.76601 12.8174 5.9346 13.2255 6.23486 13.5269C6.53512 13.8283 6.94258 13.9984 7.36801 14H12.168C12.5934 13.9984 13.0009 13.8283 13.3012 13.5269C13.6014 13.2255 13.77 12.8174 13.77 12.392V6.338C13.7702 5.91712 13.6059 5.51283 13.3122 5.21133C13.0186 4.90982 12.6187 4.73495 12.198 4.724ZM5.76601 6.338V10.382H4.60201C4.50903 10.3812 4.41712 10.3621 4.33152 10.3258C4.24593 10.2895 4.16832 10.2367 4.10313 10.1704C4.03794 10.1041 3.98645 10.0256 3.9516 9.9394C3.91675 9.8532 3.89922 9.76098 3.90001 9.668V3.614C3.89922 3.52102 3.91675 3.4288 3.9516 3.3426C3.98645 3.2564 4.03794 3.17791 4.10313 3.1116C4.16832 3.0453 4.24593 2.99249 4.33152 2.95618C4.41712 2.91988 4.50903 2.90078 4.60201 2.9H9.43201C9.52499 2.90078 9.6169 2.91988 9.7025 2.95618C9.7881 2.99249 9.86571 3.0453 9.93089 3.1116C9.99608 3.17791 10.0476 3.2564 10.0824 3.3426C10.1173 3.4288 10.1348 3.52102 10.134 3.614V4.724H7.36801C6.94203 4.72717 6.53458 4.89861 6.23449 5.20095C5.9344 5.50329 5.766 5.91201 5.76601 6.338Z" fill="#D2D2D6"/>
</svg>
