<svg width="20" height="21" viewBox="0 0 20 21" fill="none" xmlns="http://www.w3.org/2000/svg">
	<path
		d="M6.75846 5.64428C6.75829 5.98806 6.62156 6.3177 6.37835 6.56066C6.13514 6.80363 5.80537 6.94003 5.46159 6.93986C5.11781 6.93969 4.78818 6.80296 4.54521 6.55975C4.30225 6.31654 4.16584 5.98677 4.16602 5.64299C4.16619 5.29921 4.30292 4.96958 4.54613 4.72661C4.78934 4.48364 5.11911 4.34724 5.46289 4.34741C5.80667 4.34758 6.1363 4.48432 6.37927 4.72753C6.62224 4.97074 6.75864 5.3005 6.75846 5.64428ZM6.79735 7.89971H4.2049V16.0141H6.79735V7.89971ZM10.8934 7.89971H8.31393V16.0141H10.8675V11.756C10.8675 9.38389 13.959 9.16353 13.959 11.756V16.0141H16.519V10.8745C16.519 6.8757 11.9434 7.02476 10.8675 8.98854L10.8934 7.89971Z"
		fill="#D2D2D6" />
</svg>
	