<svg width="20" height="20" viewBox="0 0 20 20" fill="none" xmlns="http://www.w3.org/2000/svg">
	<path
		d="M9.99935 1.66663C14.6018 1.66663 18.3327 5.39746 18.3327 9.99996C18.3327 14.6025 14.6018 18.3333 9.99935 18.3333C5.39685 18.3333 1.66602 14.6025 1.66602 9.99996C1.66602 5.39746 5.39685 1.66663 9.99935 1.66663ZM9.41018 7.05329L7.05268 9.41079C6.89646 9.56707 6.80869 9.77899 6.80869 9.99996C6.80869 10.2209 6.89646 10.4329 7.05268 10.5891L9.41018 12.9466C9.56646 13.1029 9.77838 13.1906 9.99935 13.1906C10.2203 13.1906 10.4322 13.1029 10.5885 12.9466L12.946 10.5891C13.1022 10.4329 13.19 10.2209 13.19 9.99996C13.19 9.77899 13.1022 9.56707 12.946 9.41079L10.5885 7.05329C10.4322 6.89707 10.2203 6.8093 9.99935 6.8093C9.77838 6.8093 9.56646 6.89707 9.41018 7.05329Z"
		fill="#121214" />
</svg>
	