<svg width="20" height="20" viewBox="0 0 20 20" fill="none" xmlns="http://www.w3.org/2000/svg">
	<path fill-rule="evenodd" clip-rule="evenodd"
		d="M18.8155 15.8327C18.8154 15.9242 18.7665 16.0157 18.669 16.0601L16.9613 16.8362C16.9063 16.8613 16.8622 16.9054 16.8372 16.9604L16.061 18.668C15.9723 18.8631 15.6954 18.8635 15.6061 18.6687L14.8231 16.9597C14.7981 16.9051 14.7542 16.8613 14.6996 16.8364L12.9976 16.0599C12.8995 16.0152 12.8507 15.9227 12.8513 15.8306C12.8519 15.74 12.9004 15.6496 12.9969 15.6052L14.7003 14.8219C14.7545 14.797 14.798 14.7535 14.823 14.6992L15.6063 12.9958C15.6957 12.8014 15.9721 12.8019 16.0609 12.9965L16.8373 14.6985C16.8623 14.7532 16.906 14.797 16.9607 14.8221L18.6696 15.6051C18.7533 15.6434 18.801 15.7164 18.8127 15.7943C18.8146 15.807 18.8155 15.8199 18.8155 15.8327ZM13.8135 9.99998C13.8135 10.0916 13.7647 10.1832 13.667 10.2276L9.66967 12.0446C9.61465 12.0696 9.57054 12.1137 9.54553 12.1687L7.72858 16.166C7.63977 16.3614 7.36222 16.3614 7.2734 16.166L5.45645 12.1687C5.43144 12.1137 5.38734 12.0696 5.33231 12.0446L1.33503 10.2276C1.23731 10.1832 1.18846 10.0916 1.18848 9.99998C1.18846 9.90838 1.23731 9.81676 1.33503 9.77234L5.33231 7.95539C5.38734 7.93038 5.43144 7.88628 5.45645 7.83125L7.2734 3.83397C7.36222 3.63857 7.63977 3.63857 7.72858 3.83397L9.54553 7.83125C9.57054 7.88628 9.61465 7.93038 9.66967 7.95539L13.667 9.77234C13.7647 9.81676 13.8135 9.90837 13.8135 9.99998ZM18.8133 4.20134C18.8028 4.2808 18.7549 4.35582 18.6696 4.39489L16.9607 5.17791C16.906 5.20293 16.8623 5.24678 16.8373 5.30143L16.0609 7.00345C15.9721 7.19811 15.6957 7.19853 15.6063 7.00414L14.823 5.30074C14.798 5.24651 14.7545 5.20299 14.7003 5.17805L12.9969 4.39474C12.9004 4.35039 12.8519 4.25999 12.8513 4.16932C12.8507 4.07722 12.8995 3.98481 12.9976 3.94006L14.6996 3.16358C14.7542 3.13865 14.7981 3.09488 14.8231 3.04027L15.6061 1.33129C15.6954 1.13648 15.9723 1.1369 16.061 1.33197L16.8372 3.03959C16.8622 3.09461 16.9063 3.13871 16.9613 3.16373L18.669 3.93991C18.754 3.97855 18.802 4.05293 18.813 4.13196C18.8162 4.15495 18.8163 4.17833 18.8133 4.20134Z"
		fill="#3F8BFA" />
</svg>
	