<svg width="33" height="32" viewBox="0 0 33 32" fill="none" xmlns="http://www.w3.org/2000/svg">
	<g clip-path="url(#clip0_2203_9323)">
		<path fill-rule="evenodd" clip-rule="evenodd"
			d="M26.7022 5.90668C27.0317 5.768 27.3923 5.72017 27.7466 5.76817C28.1008 5.81617 28.4357 5.95824 28.7165 6.17959C28.9972 6.40095 29.2134 6.6935 29.3427 7.02679C29.472 7.36008 29.5096 7.72194 29.4515 8.07468L26.4275 26.4173C26.1342 28.1867 24.1929 29.2013 22.5702 28.32C21.2129 27.5827 19.1969 26.4467 17.3835 25.2613C16.4769 24.668 13.6995 22.768 14.0409 21.416C14.3342 20.26 19.0009 15.916 21.6675 13.3333C22.7142 12.3187 22.2369 11.7333 21.0009 12.6667C17.9315 14.984 13.0035 18.508 11.3742 19.5C9.93687 20.3747 9.18754 20.524 8.29154 20.3747C6.65687 20.1027 5.14087 19.6813 3.90354 19.168C2.23154 18.4747 2.31287 16.176 3.9022 15.5067L26.7022 5.90668Z"
			fill="#F7F7FC" />
	</g>
	<defs>
		<clipPath id="clip0_2203_9323">
			<rect width="32" height="32" fill="white" transform="translate(0.333008)" />
		</clipPath>
	</defs>
</svg>
	