<svg width="32" height="32" viewBox="0 0 32 32" fill="none" xmlns="http://www.w3.org/2000/svg">
	<mask id="mask0_2973_111" style="mask-type:luminance" maskUnits="userSpaceOnUse" x="0" y="0"
		width="32" height="32">
		<path d="M32 0H0V32H32V0Z" fill="white" />
	</mask>
	<g mask="url(#mask0_2973_111)">
		<path fill-rule="evenodd" clip-rule="evenodd"
			d="M2.04835 3.52074L0.842256 3.45684L0.836794 4.6749L0.836179 4.92887C0.835824 5.12657 0.835347 5.46806 0.834869 6.0433C0.8339 7.19378 0.832943 9.2801 0.832943 13.024V13.5049L2.262 14.9462C1.69616 15.3053 1.12765 15.6602 0.55652 16.0109L0.00447806 16.35L0 24.3794L6.59156 31.0316L7.02439 31.06C15.1124 31.5929 23.4307 31.0017 31.2242 28.29L32 28.0201V18.3716L30.3139 16.6711C30.6012 16.385 30.8878 16.0967 31.1723 15.8064L31.5049 15.4671V14.99C31.5049 14.6607 31.5059 12.9362 31.5068 11.2932L31.509 7.60913L24.7197 0.761841L24.044 0.990162C17.0271 3.36085 9.50135 3.91534 2.04835 3.52074ZM24.4097 2.09105L30.3576 8.08975C30.3576 8.08975 30.3537 14.3305 30.3537 14.99C30.071 15.2784 29.7859 15.5654 29.4998 15.8501C29.2259 16.1228 28.9511 16.3935 28.6765 16.6617L30.8487 18.8524V27.1924C23.2427 29.8389 15.0876 30.4278 7.09935 29.9015L1.15148 23.8989L1.15531 17.0025C1.80574 16.6031 2.4529 16.1983 3.09671 15.788C3.42891 15.5762 3.76015 15.3631 4.09058 15.1484L1.98415 13.024C1.98415 9.05016 1.98524 6.94418 1.98625 5.84272C1.98715 4.86879 1.988 4.68009 1.988 4.68009C2.37134 4.70044 2.75509 4.71832 3.13903 4.73348C10.3105 5.01816 17.5779 4.39923 24.4097 2.09105Z"
			fill="white" />
		<path fill-rule="evenodd" clip-rule="evenodd"
			d="M24.4095 2.09106C17.2121 4.52284 9.53083 5.07965 1.98789 4.68013C1.98789 4.68013 1.98405 5.53664 1.98405 13.024L4.09043 15.1485C3.11991 15.779 2.1413 16.397 1.1552 17.0025L1.15137 23.899L7.0992 29.9015C15.0876 30.4279 23.2425 29.839 30.8487 27.1924V18.8525L28.6763 16.6617C29.2375 16.1135 29.8001 15.5547 30.3536 14.9901C30.3536 14.3306 30.3574 8.08965 30.3574 8.08965L24.4095 2.09106ZM28.0511 14.4677V11.124L28.0473 11.12C22.8669 12.5791 17.6864 13.1325 12.506 13.1325C11.7463 13.1325 10.9903 13.1208 10.2305 13.0976V16.7974C10.9979 16.8206 11.7616 16.8323 12.5291 16.8323C15.196 16.8323 17.863 16.6852 20.53 16.3407C16.8231 19.3479 13.1124 21.9755 9.40166 24.3557V27.6994C10.4377 27.742 11.4738 27.7652 12.5098 27.7652C17.8553 27.7652 23.2007 27.1732 28.5501 25.6097V21.9099C24.6704 23.0399 20.7986 23.6629 16.9229 23.9223C20.6297 21.1474 24.3404 18.0358 28.0511 14.4677Z"
			fill="#0D0D0D" />
		<path
			d="M28.051 11.124V14.4677C24.3403 18.0358 20.6295 21.1474 16.9226 23.9223C20.7983 23.663 24.6703 23.0399 28.5498 21.9099C28.5498 23.1445 28.5498 24.3751 28.5498 25.6097C23.2006 27.1732 17.8551 27.7653 12.5097 27.7653C11.4736 27.7653 10.4376 27.742 9.40137 27.6995V24.3557C13.1121 21.9757 16.8228 19.3478 20.5297 16.3408C17.8628 16.6852 15.1958 16.8322 12.5288 16.8322C11.7613 16.8322 10.9978 16.8206 10.2303 16.7974C10.2303 15.5628 10.2303 14.3322 10.2303 13.0976C10.99 13.1208 11.746 13.1324 12.5059 13.1324C17.6863 13.1324 22.8667 12.5791 28.0472 11.12L28.051 11.124Z"
			fill="white" />
	</g>
</svg>
	