<svg width="40" height="40" viewBox="0 0 40 40" fill="none" xmlns="http://www.w3.org/2000/svg">
	<path
		d="M15.036 14.9944C14.8658 12.7873 15.3758 10.581 16.4974 8.67246C17.6191 6.76395 19.2985 5.24487 21.3095 4.31967C23.3206 3.39448 25.5669 3.10758 27.7459 3.4976C29.925 3.88762 31.9323 4.93583 33.4976 6.50114C35.0629 8.06646 36.1111 10.0737 36.5011 12.2528C36.8911 14.4319 36.6042 16.6781 35.679 18.6892C34.7538 20.7003 33.2348 22.3796 31.3263 23.5013C29.4178 24.6229 27.2115 25.1329 25.0043 24.9627"
		stroke="white" stroke-width="2" stroke-linecap="round" stroke-linejoin="round" />
	<path
		d="M36.6693 28.3281C36.6693 29.6542 36.1425 30.926 35.2048 31.8637C34.2671 32.8013 32.9954 33.3281 31.6693 33.3281H28.3359M28.3359 33.3281L31.6693 29.9948M28.3359 33.3281L31.6693 36.6615M3.33594 11.6615C3.33594 10.3354 3.86272 9.06361 4.8004 8.12592C5.73809 7.18824 7.00985 6.66146 8.33594 6.66146H11.6693M11.6693 6.66146L8.33594 9.99479M11.6693 6.66146L8.33594 3.32812M14.1693 36.6615C11.2961 36.6615 8.54059 35.5201 6.50895 33.4884C4.4773 31.4568 3.33594 28.7013 3.33594 25.8281C3.33594 22.9549 4.4773 20.1994 6.50895 18.1678C8.54059 16.1362 11.2961 14.9948 14.1693 14.9948C17.0424 14.9948 19.798 16.1362 21.8296 18.1678C23.8612 20.1994 25.0026 22.9549 25.0026 25.8281C25.0026 28.7013 23.8612 31.4568 21.8296 33.4884C19.798 35.5201 17.0424 36.6615 14.1693 36.6615Z"
		stroke="white" stroke-width="2" stroke-linecap="round" stroke-linejoin="round" />
	<g clip-path="url(#clip0_198_5370)">
		<path
			d="M19.112 28.4106L17.4612 30.1806C17.4256 30.219 17.3824 30.2498 17.334 30.2706C17.286 30.2918 17.234 30.3026 17.1816 30.3026H9.35603C9.31883 30.3026 9.28203 30.2918 9.25083 30.271C9.21963 30.2506 9.19523 30.2214 9.18003 30.1874C9.16523 30.1534 9.16043 30.1154 9.16683 30.0786C9.17283 30.0418 9.19003 30.0078 9.21523 29.9802L10.8644 28.2102C10.9 28.1718 10.9432 28.141 10.9916 28.1202C11.0396 28.0994 11.0916 28.0882 11.144 28.0882H18.9696C19.0072 28.0874 19.0444 28.0978 19.076 28.1182C19.1076 28.1386 19.1328 28.1674 19.148 28.2022C19.1632 28.2366 19.168 28.275 19.1616 28.3118C19.1552 28.349 19.138 28.3834 19.112 28.4106ZM17.4612 24.8454C17.4252 24.807 17.382 24.7766 17.334 24.7554C17.286 24.7346 17.234 24.7234 17.1816 24.723H9.35603C9.31883 24.723 9.28203 24.7338 9.25083 24.7542C9.22003 24.775 9.19523 24.8042 9.18043 24.8386C9.16563 24.8726 9.16083 24.9106 9.16723 24.9474C9.17323 24.9842 9.19043 25.0182 9.21563 25.0458L10.8644 26.8166C10.9004 26.855 10.9436 26.8854 10.9916 26.9062C11.0396 26.927 11.0916 26.9382 11.144 26.9386H18.9696C19.0068 26.9382 19.0432 26.9274 19.0744 26.907C19.1056 26.8866 19.13 26.8574 19.1448 26.8234C19.1596 26.789 19.164 26.7514 19.158 26.7146C19.1516 26.6778 19.1348 26.6438 19.1096 26.6166L17.4612 24.8454ZM9.35603 23.5738H17.1816C17.234 23.5738 17.286 23.563 17.334 23.5418C17.382 23.521 17.4252 23.4902 17.4612 23.4518L19.112 21.6818C19.138 21.6546 19.1552 21.6202 19.1616 21.583C19.168 21.5458 19.1632 21.5078 19.148 21.4734C19.1328 21.439 19.1076 21.4098 19.076 21.3894C19.0444 21.369 19.0072 21.359 18.9696 21.3594H11.144C11.0916 21.3594 11.0396 21.3702 10.9916 21.3914C10.9436 21.4122 10.9004 21.443 10.8644 21.4814L9.21563 23.2514C9.19043 23.2786 9.17323 23.313 9.16723 23.3498C9.16083 23.3866 9.16563 23.4246 9.18043 23.4586C9.19523 23.4926 9.22003 23.5218 9.25123 23.5422C9.28243 23.563 9.31883 23.5738 9.35603 23.5738Z"
			fill="white" />
	</g>
	<g clip-path="url(#clip1_198_5370)">
		<path d="M25.7573 7.5L25.668 7.80376V16.6181L25.7573 16.7073L29.8488 14.2888L25.7573 7.5Z"
			fill="#B3B3B3" />
		<path d="M25.7595 7.5L21.668 14.2888L25.7595 16.7073V12.4291V7.5Z" fill="white" />
		<path
			d="M25.7574 17.4876L25.707 17.549V20.6888L25.7574 20.8359L29.8513 15.0703L25.7574 17.4876Z"
			fill="#BDBDBD" />
		<path d="M25.7595 20.8359V17.4876L21.668 15.0703L25.7595 20.8359Z" fill="white" />
		<path d="M25.7578 16.7078L29.8493 14.2894L25.7578 12.4297V16.7078Z" fill="#949494" />
		<path d="M21.668 14.2894L25.7594 16.7078V12.4297L21.668 14.2894Z" fill="#B8B8B8" />
	</g>
	<defs>
		<clipPath id="clip0_198_5370">
			<rect width="10" height="10" fill="white" transform="translate(9.16797 20.8359)" />
		</clipPath>
		<clipPath id="clip1_198_5370">
			<rect width="8.18545" height="13.3333" fill="white" transform="translate(21.668 7.5)" />
		</clipPath>
	</defs>
</svg>