<svg width="20" height="21" viewBox="0 0 20 21" fill="none" xmlns="http://www.w3.org/2000/svg">
	<path
		d="M15.538 5.61349C14.5247 5.1411 13.4275 4.79823 12.2846 4.60013C12.2746 4.59981 12.2646 4.60169 12.2554 4.60564C12.2462 4.60959 12.2379 4.61551 12.2313 4.62299C12.0941 4.87443 11.9341 5.20205 11.8274 5.45349C10.6152 5.27063 9.38242 5.27063 8.1702 5.45349C8.06353 5.19443 7.90353 4.87443 7.75876 4.62299C7.75114 4.60775 7.72828 4.60013 7.70542 4.60013C6.56254 4.79823 5.47298 5.1411 4.452 5.61349C4.44438 5.61349 4.43676 5.62111 4.42914 5.62873C2.35671 8.72977 1.78526 11.747 2.06717 14.7337C2.06717 14.749 2.07479 14.7642 2.09003 14.7718C3.4615 15.7776 4.77963 16.3871 6.08252 16.7909C6.10538 16.7986 6.12824 16.7909 6.13586 16.7757C6.44063 16.3566 6.71492 15.9147 6.95112 15.45C6.96636 15.4195 6.95112 15.389 6.92064 15.3814C6.48634 15.2138 6.0749 15.0157 5.67108 14.7871C5.64061 14.7718 5.64061 14.7261 5.66346 14.7033C5.74728 14.6423 5.83109 14.5737 5.9149 14.5128C5.93014 14.4975 5.953 14.4975 5.96823 14.5052C8.58926 15.7014 11.416 15.7014 14.0065 14.5052C14.0218 14.4975 14.0446 14.4975 14.0599 14.5128C14.1437 14.5814 14.2275 14.6423 14.3113 14.7109C14.3418 14.7337 14.3418 14.7795 14.3037 14.7947C13.9075 15.0309 13.4884 15.2214 13.0541 15.389C13.0237 15.3966 13.016 15.4347 13.0237 15.4576C13.2675 15.9223 13.5418 16.3643 13.8389 16.7833C13.8618 16.7909 13.8846 16.7986 13.9075 16.7909C15.218 16.3871 16.5361 15.7776 17.9076 14.7718C17.9228 14.7642 17.9305 14.749 17.9305 14.7337C18.2657 11.2822 17.3743 8.28785 15.5685 5.62873C15.5609 5.62111 15.5533 5.61349 15.538 5.61349ZM7.34732 12.9127C6.56254 12.9127 5.90728 12.1889 5.90728 11.2975C5.90728 10.406 6.5473 9.68218 7.34732 9.68218C8.15496 9.68218 8.79498 10.4136 8.78736 11.2975C8.78736 12.1889 8.14734 12.9127 7.34732 12.9127ZM12.6579 12.9127C11.8732 12.9127 11.2179 12.1889 11.2179 11.2975C11.2179 10.406 11.8579 9.68218 12.6579 9.68218C13.4656 9.68218 14.1056 10.4136 14.098 11.2975C14.098 12.1889 13.4656 12.9127 12.6579 12.9127Z"
		fill="#D2D2D6" />
</svg>
	
