<svg width="20" height="20" viewBox="0 0 20 20" fill="none" xmlns="http://www.w3.org/2000/svg">
	<path fill-rule="evenodd" clip-rule="evenodd"
		d="M4.33752 8.16252C4.51442 7.99183 4.75128 7.89745 4.99709 7.8997C5.2429 7.90195 5.47799 8.00065 5.65173 8.17456C5.82546 8.34846 5.92395 8.58364 5.92597 8.82946C5.92799 9.07527 5.83338 9.31204 5.66252 9.48877L4.75377 10.3975C4.12121 11.0427 3.76885 11.9114 3.7733 12.8149C3.77774 13.7184 4.13863 14.5837 4.77751 15.2225C5.41639 15.8614 6.28163 16.2223 7.18513 16.2267C8.08864 16.2312 8.95738 15.8788 9.60252 15.2463L10.5113 14.3375C10.689 14.1719 10.924 14.0818 11.1669 14.0861C11.4098 14.0903 11.6415 14.1887 11.8133 14.3605C11.9851 14.5323 12.0835 14.764 12.0877 15.0069C12.092 15.2497 12.0019 15.4848 11.8363 15.6625L10.9288 16.5713C9.92983 17.5445 8.58772 18.0852 7.19307 18.0761C5.79841 18.067 4.46345 17.509 3.47726 16.5228C2.49107 15.5366 1.93302 14.2016 1.92394 12.807C1.91487 11.4123 2.4555 10.0702 3.42877 9.07127L4.33752 8.16252ZM14.3375 10.5113C14.1719 10.689 14.0818 10.924 14.0861 11.1669C14.0903 11.4098 14.1887 11.6415 14.3605 11.8133C14.5323 11.9851 14.764 12.0835 15.0069 12.0877C15.2497 12.092 15.4848 12.0019 15.6625 11.8363L16.5713 10.9288C17.5445 9.92983 18.0852 8.58772 18.0761 7.19307C18.067 5.79841 17.509 4.46345 16.5228 3.47726C15.5366 2.49107 14.2016 1.93302 12.807 1.92394C11.4123 1.91487 10.0702 2.4555 9.07127 3.42877L8.16252 4.33752C7.99183 4.51442 7.89745 4.75128 7.8997 4.99709C7.90195 5.2429 8.00065 5.47799 8.17456 5.65173C8.34846 5.82546 8.58364 5.92395 8.82946 5.92597C9.07527 5.92799 9.31204 5.83338 9.48877 5.66252L10.3975 4.75377C11.0427 4.12121 11.9114 3.76885 12.8149 3.7733C13.7184 3.77774 14.5837 4.13863 15.2225 4.77751C15.8614 5.41639 16.2223 6.28163 16.2267 7.18513C16.2312 8.08864 15.8788 8.95738 15.2463 9.60252L14.3375 10.5113ZM13.1625 8.16252C13.2546 8.07669 13.3285 7.97319 13.3797 7.85819C13.431 7.7432 13.4585 7.61905 13.4608 7.49318C13.463 7.3673 13.4398 7.24226 13.3927 7.12552C13.3455 7.00879 13.2753 6.90275 13.1863 6.81372C13.0973 6.7247 12.9913 6.65452 12.8745 6.60737C12.7578 6.56022 12.6327 6.53706 12.5069 6.53928C12.381 6.5415 12.2568 6.56906 12.1418 6.6203C12.0269 6.67154 11.9234 6.74541 11.8375 6.83752L6.83752 11.8375C6.74541 11.9234 6.67154 12.0269 6.6203 12.1418C6.56906 12.2568 6.5415 12.381 6.53928 12.5069C6.53706 12.6327 6.56022 12.7578 6.60737 12.8745C6.65452 12.9913 6.7247 13.0973 6.81372 13.1863C6.90275 13.2753 7.00879 13.3455 7.12552 13.3927C7.24226 13.4398 7.3673 13.463 7.49318 13.4608C7.61905 13.4585 7.7432 13.431 7.85819 13.3797C7.97319 13.3285 8.07669 13.2546 8.16252 13.1625L13.1625 8.16252Z"
		fill="#E6E6EB" />
</svg>
	