<svg width="20" height="21" viewBox="0 0 20 21" fill="none" xmlns="http://www.w3.org/2000/svg">
	<path
		d="M15.625 4.6001H4.375C3.87788 4.60064 3.40128 4.80195 3.04976 5.15986C2.69825 5.51776 2.50053 6.00303 2.5 6.50919V14.691C2.50053 15.1972 2.69825 15.6824 3.04976 16.0403C3.40128 16.3982 3.87788 16.5996 4.375 16.6001H15.625C16.1221 16.5996 16.5987 16.3982 16.9502 16.0403C17.3018 15.6824 17.4995 15.1972 17.5 14.691V6.50919C17.4995 6.00303 17.3018 5.51776 16.9502 5.15986C16.5987 4.80195 16.1221 4.60064 15.625 4.6001ZM15.1502 7.75794L10.3288 11.5761C10.2348 11.6505 10.1191 11.6909 10 11.6909C9.88091 11.6909 9.76522 11.6505 9.67121 11.5761L4.84978 7.75794C4.79313 7.71438 4.74555 7.6598 4.7098 7.59736C4.67405 7.53491 4.65085 7.46586 4.64153 7.39421C4.63222 7.32256 4.63699 7.24974 4.65556 7.17998C4.67413 7.11022 4.70613 7.04491 4.7497 6.98785C4.79327 6.93079 4.84754 6.88312 4.90937 6.8476C4.97119 6.81209 5.03933 6.78944 5.10983 6.78096C5.18032 6.77249 5.25177 6.77837 5.32002 6.79826C5.38826 6.81814 5.45195 6.85164 5.50737 6.8968L10 10.4545L14.4926 6.8968C14.605 6.81042 14.7462 6.77254 14.8857 6.79134C15.0253 6.81014 15.152 6.88412 15.2384 6.99728C15.3248 7.11043 15.364 7.25367 15.3475 7.39602C15.331 7.53836 15.2601 7.66838 15.1502 7.75794Z"
		fill="#D2D2D6" />
</svg>
	